<svg width="64" height="64" viewBox="0 0 64 64" fill="none" xmlns="http://www.w3.org/2000/svg">
<path fill-rule="evenodd" clip-rule="evenodd" d="M4.85156 4.27831V23.1289C4.85156 23.3512 4.92568 23.5673 5.06221 23.7428L31.1032 57.2241C31.5036 57.7388 32.2816 57.7388 32.6819 57.2241L58.7229 23.7428C58.8595 23.5673 58.9336 23.3512 58.9336 23.1289V4.27831C58.9336 3.85113 58.4325 3.62068 58.1082 3.89868L45.8053 14.444C45.5593 14.6549 45.2285 14.7342 44.9131 14.6603C43.1126 14.2385 36.8077 12.8487 31.8926 12.8487C26.9774 12.8487 20.6725 14.2385 18.8721 14.6603C18.5566 14.7342 18.2259 14.6549 17.9799 14.444L5.67696 3.89868C5.35262 3.62068 4.85156 3.85113 4.85156 4.27831ZM24.1651 34.092C27.3654 34.092 29.9596 31.4977 29.9596 28.2975C29.9596 25.0973 27.3654 22.503 24.1651 22.503C20.9649 22.503 18.3706 25.0973 18.3706 28.2975C18.3706 31.4977 20.9649 34.092 24.1651 34.092ZM39.6171 34.092C42.8174 34.092 45.4117 31.4977 45.4117 28.2975C45.4117 25.0973 42.8174 22.503 39.6171 22.503C36.4169 22.503 33.8226 25.0973 33.8226 28.2975C33.8226 31.4977 36.4169 34.092 39.6171 34.092Z" fill="black"/>
<path fill-rule="evenodd" clip-rule="evenodd" d="M4.85156 4.27831V23.1289C4.85156 23.3512 4.92568 23.5673 5.06221 23.7428L31.1032 57.2241C31.5036 57.7388 32.2816 57.7388 32.6819 57.2241L58.7229 23.7428C58.8595 23.5673 58.9336 23.3512 58.9336 23.1289V4.27831C58.9336 3.85113 58.4325 3.62068 58.1082 3.89868L45.8053 14.444C45.5593 14.6549 45.2285 14.7342 44.9131 14.6603C43.1126 14.2385 36.8077 12.8487 31.8926 12.8487C26.9774 12.8487 20.6725 14.2385 18.8721 14.6603C18.5566 14.7342 18.2259 14.6549 17.9799 14.444L5.67696 3.89868C5.35262 3.62068 4.85156 3.85113 4.85156 4.27831ZM24.1651 34.092C27.3654 34.092 29.9596 31.4977 29.9596 28.2975C29.9596 25.0973 27.3654 22.503 24.1651 22.503C20.9649 22.503 18.3706 25.0973 18.3706 28.2975C18.3706 31.4977 20.9649 34.092 24.1651 34.092ZM39.6171 34.092C42.8174 34.092 45.4117 31.4977 45.4117 28.2975C45.4117 25.0973 42.8174 22.503 39.6171 22.503C36.4169 22.503 33.8226 25.0973 33.8226 28.2975C33.8226 31.4977 36.4169 34.092 39.6171 34.092Z" fill="black"/>
<path fill-rule="evenodd" clip-rule="evenodd" d="M4.85156 29.2734V52.4514C4.85156 55.5949 6.72882 58.2998 9.42339 59.5064V51.4836C9.42339 51.3456 9.53532 51.2336 9.67339 51.2336C9.81147 51.2336 9.92339 51.3456 9.92339 51.4836V59.7095C10.7511 60.0122 11.645 60.1775 12.5776 60.1775C13.5049 60.1775 14.3941 60.0141 15.2179 59.7145V51.4836C15.2179 51.3456 15.3298 51.2336 15.4679 51.2336C15.606 51.2336 15.7179 51.3456 15.7179 51.4836V59.5126C18.4199 58.3091 20.3036 55.6002 20.3036 52.4514C20.3036 52.4514 21.2693 48.5884 14.5091 39.8967C7.74881 31.2049 4.85156 29.2734 4.85156 29.2734Z" fill="black"/>
<path fill-rule="evenodd" clip-rule="evenodd" d="M4.85156 29.2734V52.4514C4.85156 55.5949 6.72882 58.2998 9.42339 59.5064V51.4836C9.42339 51.3456 9.53532 51.2336 9.67339 51.2336C9.81147 51.2336 9.92339 51.3456 9.92339 51.4836V59.7095C10.7511 60.0122 11.645 60.1775 12.5776 60.1775C13.5049 60.1775 14.3941 60.0141 15.2179 59.7145V51.4836C15.2179 51.3456 15.3298 51.2336 15.4679 51.2336C15.606 51.2336 15.7179 51.3456 15.7179 51.4836V59.5126C18.4199 58.3091 20.3036 55.6002 20.3036 52.4514C20.3036 52.4514 21.2693 48.5884 14.5091 39.8967C7.74881 31.2049 4.85156 29.2734 4.85156 29.2734Z" fill="black"/>
<path fill-rule="evenodd" clip-rule="evenodd" d="M58.9997 29.2734V52.4514C58.9997 55.6179 57.0948 58.3395 54.3685 59.5327V51.4836C54.3685 51.3456 54.2565 51.2336 54.1185 51.2336C53.9804 51.2336 53.8685 51.3456 53.8685 51.4836V59.7309C53.0575 60.02 52.184 60.1775 51.2737 60.1775C50.324 60.1775 49.4144 60.0061 48.574 59.6926V51.4836C48.574 51.3456 48.462 51.2336 48.324 51.2336C48.1859 51.2336 48.074 51.3456 48.074 51.4836V59.4858C45.4038 58.2693 43.5477 55.5771 43.5477 52.4514C43.5477 52.4514 42.5819 48.5884 49.3422 39.8967C56.1024 31.2049 58.9997 29.2734 58.9997 29.2734Z" fill="black"/>
<path fill-rule="evenodd" clip-rule="evenodd" d="M58.9997 29.2734V52.4514C58.9997 55.6179 57.0948 58.3395 54.3685 59.5327V51.4836C54.3685 51.3456 54.2565 51.2336 54.1185 51.2336C53.9804 51.2336 53.8685 51.3456 53.8685 51.4836V59.7309C53.0575 60.02 52.184 60.1775 51.2737 60.1775C50.324 60.1775 49.4144 60.0061 48.574 59.6926V51.4836C48.574 51.3456 48.462 51.2336 48.324 51.2336C48.1859 51.2336 48.074 51.3456 48.074 51.4836V59.4858C45.4038 58.2693 43.5477 55.5771 43.5477 52.4514C43.5477 52.4514 42.5819 48.5884 49.3422 39.8967C56.1024 31.2049 58.9997 29.2734 58.9997 29.2734Z" fill="black"/>
</svg>
