<svg width="136" height="36" viewBox="0 0 136 36" fill="none" xmlns="http://www.w3.org/2000/svg">
<path fill-rule="evenodd" clip-rule="evenodd" d="M0 1.0869V10.1567C0 10.3791 0.0741222 10.5951 0.210648 10.7706L13.2106 27.4849C13.611 27.9997 14.389 27.9997 14.7894 27.4849L27.7894 10.7706C27.9259 10.5951 28 10.3791 28 10.1567V1.0869C28 0.659727 27.4989 0.429272 27.1746 0.707275L21.3922 5.66362C21.1462 5.8745 20.8142 5.9534 20.4982 5.88173C19.3317 5.61716 16.3572 4.99979 14 4.99979C11.6428 4.99979 8.66826 5.61716 7.50176 5.88173C7.18575 5.9534 6.85383 5.8745 6.6078 5.66362L0.825396 0.707275C0.501059 0.429273 0 0.659727 0 1.0869ZM10 16C11.6569 16 13 14.6569 13 13C13 11.3431 11.6569 10 10 10C8.34315 10 7 11.3431 7 13C7 14.6569 8.34315 16 10 16ZM18 16C19.6569 16 21 14.6569 21 13C21 11.3431 19.6569 10 18 10C16.3431 10 15 11.3431 15 13C15 14.6569 16.3431 16 18 16Z" fill="white"/>
<path fill-rule="evenodd" clip-rule="evenodd" d="M0 1.0869V10.1567C0 10.3791 0.0741222 10.5951 0.210648 10.7706L13.2106 27.4849C13.611 27.9997 14.389 27.9997 14.7894 27.4849L27.7894 10.7706C27.9259 10.5951 28 10.3791 28 10.1567V1.0869C28 0.659727 27.4989 0.429272 27.1746 0.707275L21.3922 5.66362C21.1462 5.8745 20.8142 5.9534 20.4982 5.88173C19.3317 5.61716 16.3572 4.99979 14 4.99979C11.6428 4.99979 8.66826 5.61716 7.50176 5.88173C7.18575 5.9534 6.85383 5.8745 6.6078 5.66362L0.825396 0.707275C0.501059 0.429273 0 0.659727 0 1.0869ZM10 16C11.6569 16 13 14.6569 13 13C13 11.3431 11.6569 10 10 10C8.34315 10 7 11.3431 7 13C7 14.6569 8.34315 16 10 16ZM18 16C19.6569 16 21 14.6569 21 13C21 11.3431 19.6569 10 18 10C16.3431 10 15 11.3431 15 13C15 14.6569 16.3431 16 18 16Z" fill="white"/>
<path fill-rule="evenodd" clip-rule="evenodd" d="M0 13.5V25.5C0 27.0816 0.917882 28.4487 2.25 29.0979V25C2.25 24.8619 2.36193 24.75 2.5 24.75C2.63807 24.75 2.75 24.8619 2.75 25V29.3008C3.14327 29.4301 3.56347 29.5 4 29.5C4.43653 29.5 4.85673 29.4301 5.25 29.3008V25C5.25 24.8619 5.36193 24.75 5.5 24.75C5.63807 24.75 5.75 24.8619 5.75 25V29.0979C7.08212 28.4487 8 27.0816 8 25.5C8 25.5 8.5 23.5 5 19C1.5 14.5 0 13.5 0 13.5Z" fill="white"/>
<path fill-rule="evenodd" clip-rule="evenodd" d="M0 13.5V25.5C0 27.0816 0.917882 28.4487 2.25 29.0979V25C2.25 24.8619 2.36193 24.75 2.5 24.75C2.63807 24.75 2.75 24.8619 2.75 25V29.3008C3.14327 29.4301 3.56347 29.5 4 29.5C4.43653 29.5 4.85673 29.4301 5.25 29.3008V25C5.25 24.8619 5.36193 24.75 5.5 24.75C5.63807 24.75 5.75 24.8619 5.75 25V29.0979C7.08212 28.4487 8 27.0816 8 25.5C8 25.5 8.5 23.5 5 19C1.5 14.5 0 13.5 0 13.5Z" fill="white"/>
<path fill-rule="evenodd" clip-rule="evenodd" d="M28.0247 13.5V25.5C28.0247 27.0908 27.096 28.4647 25.7513 29.1092V25C25.7513 24.8619 25.6393 24.75 25.5013 24.75C25.3632 24.75 25.2513 24.8619 25.2513 25V29.3084C24.8647 29.4328 24.4526 29.5 24.0247 29.5C23.5795 29.5 23.1513 29.4273 22.7513 29.293V25C22.7513 24.8619 22.6393 24.75 22.5013 24.75C22.3632 24.75 22.2513 24.8619 22.2513 25V29.0864C20.9318 28.4327 20.0247 27.0723 20.0247 25.5C20.0247 25.5 19.5247 23.5 23.0247 19C26.5247 14.5 28.0247 13.5 28.0247 13.5Z" fill="white"/>
<path fill-rule="evenodd" clip-rule="evenodd" d="M28.0247 13.5V25.5C28.0247 27.0908 27.096 28.4647 25.7513 29.1092V25C25.7513 24.8619 25.6393 24.75 25.5013 24.75C25.3632 24.75 25.2513 24.8619 25.2513 25V29.3084C24.8647 29.4328 24.4526 29.5 24.0247 29.5C23.5795 29.5 23.1513 29.4273 22.7513 29.293V25C22.7513 24.8619 22.6393 24.75 22.5013 24.75C22.3632 24.75 22.2513 24.8619 22.2513 25V29.0864C20.9318 28.4327 20.0247 27.0723 20.0247 25.5C20.0247 25.5 19.5247 23.5 23.0247 19C26.5247 14.5 28.0247 13.5 28.0247 13.5Z" fill="white"/>
<path d="M38.1097 28.3591C36.5737 28.3591 35.2057 27.9991 34.0057 27.2791C32.8297 26.5351 31.9057 25.5151 31.2337 24.2191C30.5857 22.9231 30.2617 21.4231 30.2617 19.7191C30.2617 17.9911 30.5977 16.4791 31.2697 15.1831C31.9657 13.8871 32.9257 12.8791 34.1497 12.1591C35.3977 11.4391 36.8377 11.0791 38.4697 11.0791C40.1017 11.0791 41.4937 11.4271 42.6457 12.1231C43.8217 12.7951 44.7217 13.7671 45.3457 15.0391C45.9697 16.3111 46.2817 17.8231 46.2817 19.5751C46.2817 19.7431 46.2697 19.9231 46.2457 20.1151C46.2457 20.2831 46.2457 20.3911 46.2457 20.4391H32.0977V17.9911H43.9777L42.8257 19.6471C42.8977 19.5271 42.9697 19.3471 43.0417 19.1071C43.1137 18.8431 43.1497 18.6271 43.1497 18.4591C43.1497 17.4751 42.9457 16.6231 42.5377 15.9031C42.1537 15.1831 41.6137 14.6191 40.9177 14.2111C40.2217 13.8031 39.4057 13.5991 38.4697 13.5991C37.3657 13.5991 36.4177 13.8391 35.6257 14.3191C34.8577 14.7751 34.2577 15.4471 33.8257 16.3351C33.4177 17.1991 33.2017 18.2671 33.1777 19.5391C33.1777 20.8351 33.3817 21.9391 33.7897 22.8511C34.1977 23.7631 34.7977 24.4591 35.5897 24.9391C36.3817 25.4191 37.3417 25.6591 38.4697 25.6591C39.5977 25.6591 40.5937 25.4191 41.4577 24.9391C42.3217 24.4351 43.0537 23.6791 43.6537 22.6711L45.9937 24.1471C45.1297 25.5391 44.0377 26.5951 42.7177 27.3151C41.4217 28.0111 39.8857 28.3591 38.1097 28.3591Z" fill="white"/>
<path d="M47.1817 11.4391H50.4217L54.5617 22.2031L59.0617 10.1791L63.8857 22.2751L68.0617 11.4391H71.3017L64.1017 29.2591L59.0977 17.1991L54.3817 29.2591L47.1817 11.4391Z" fill="white"/>
<path d="M77.8425 10.9711L75.9705 27.9991H72.9105L75.9705 1.53906L86.0505 19.7911L96.1305 1.53906L99.1905 27.9991H96.1305L94.2585 10.9711L86.0505 25.6591L77.8425 10.9711Z" fill="white"/>
<path d="M101.875 19.7191C101.875 18.0391 102.247 16.5511 102.991 15.2551C103.759 13.9591 104.791 12.9391 106.087 12.1951C107.383 11.4511 108.835 11.0791 110.443 11.0791C112.075 11.0791 113.527 11.4511 114.799 12.1951C116.095 12.9391 117.115 13.9591 117.859 15.2551C118.627 16.5511 119.011 18.0391 119.011 19.7191C119.011 21.3751 118.627 22.8631 117.859 24.1831C117.115 25.4791 116.095 26.4991 114.799 27.2431C113.527 27.9871 112.075 28.3591 110.443 28.3591C108.835 28.3591 107.383 27.9871 106.087 27.2431C104.791 26.4991 103.759 25.4791 102.991 24.1831C102.247 22.8631 101.875 21.3751 101.875 19.7191ZM104.791 19.7191C104.791 20.8711 105.031 21.8911 105.511 22.7791C106.015 23.6671 106.687 24.3751 107.527 24.9031C108.391 25.4071 109.363 25.6591 110.443 25.6591C111.523 25.6591 112.483 25.4071 113.323 24.9031C114.187 24.3751 114.859 23.6671 115.339 22.7791C115.843 21.8911 116.095 20.8711 116.095 19.7191C116.095 18.5671 115.843 17.5471 115.339 16.6591C114.859 15.7471 114.187 15.0391 113.323 14.5351C112.483 14.0311 111.523 13.7791 110.443 13.7791C109.363 13.7791 108.391 14.0311 107.527 14.5351C106.687 15.0391 106.015 15.7471 105.511 16.6591C105.031 17.5471 104.791 18.5671 104.791 19.7191Z" fill="white"/>
<path d="M122.499 4.59906C122.499 4.04706 122.691 3.59106 123.075 3.23106C123.459 2.84706 123.915 2.65506 124.443 2.65506C124.995 2.65506 125.451 2.84706 125.811 3.23106C126.195 3.59106 126.387 4.04706 126.387 4.59906C126.387 5.12706 126.195 5.58306 125.811 5.96706C125.451 6.35106 124.995 6.54306 124.443 6.54306C123.915 6.54306 123.459 6.35106 123.075 5.96706C122.691 5.58306 122.499 5.12706 122.499 4.59906ZM117.5 33C118.071 33 120 33 120.375 33C121 33 117.582 33 121.5 33C121.908 33 122.707 32.2183 123 32C123.373 31.7219 122.847 32.1511 122.967 31.6711C123.087 31.1911 123.147 30.5671 123.147 29.7991V11.4391H126.027V30.1591C126.027 31.3591 125.835 32.3911 125.451 33.2551C125.091 34.1191 124.551 34.7791 123.831 35.2351C123.111 35.6911 122.247 35.9191 121.239 35.9191C120.759 35.9191 112 36 112 36H29.3333C29.1492 36 29 35.8508 29 35.6667C29 34.1939 30.1939 33 31.6667 33H117.5Z" fill="white"/>
<path d="M131.967 4.59906C131.967 4.04706 132.159 3.57906 132.543 3.19506C132.951 2.81106 133.419 2.61906 133.947 2.61906C134.499 2.61906 134.967 2.81106 135.351 3.19506C135.735 3.57906 135.927 4.04706 135.927 4.59906C135.927 5.12706 135.735 5.59506 135.351 6.00306C134.967 6.38706 134.499 6.57906 133.947 6.57906C133.419 6.57906 132.951 6.38706 132.543 6.00306C132.159 5.59506 131.967 5.12706 131.967 4.59906ZM132.507 11.4391H135.387V27.9991H132.507V11.4391Z" fill="white"/>
</svg>
