<svg width="136" height="36" viewBox="0 0 136 36" fill="none" xmlns="http://www.w3.org/2000/svg">
<path fill-rule="evenodd" clip-rule="evenodd" d="M0 0.500966V9.57075C0 9.79312 0.0741222 10.0092 0.210648 10.1847L13.2106 26.899C13.611 27.4137 14.389 27.4137 14.7894 26.899L27.7894 10.1847C27.9259 10.0092 28 9.79312 28 9.57075V0.500966C28 0.0737896 27.4989 -0.156665 27.1746 0.121338L21.3922 5.07769C21.1462 5.28856 20.8142 5.36747 20.4982 5.29579C19.3317 5.03123 16.3572 4.41386 14 4.41386C11.6428 4.41386 8.66826 5.03123 7.50176 5.29579C7.18575 5.36747 6.85383 5.28856 6.6078 5.07769L0.825396 0.121338C0.501059 -0.156665 0 0.0737893 0 0.500966ZM10 15.4141C11.6569 15.4141 13 14.0709 13 12.4141C13 10.7572 11.6569 9.41406 10 9.41406C8.34315 9.41406 7 10.7572 7 12.4141C7 14.0709 8.34315 15.4141 10 15.4141ZM18 15.4141C19.6569 15.4141 21 14.0709 21 12.4141C21 10.7572 19.6569 9.41406 18 9.41406C16.3431 9.41406 15 10.7572 15 12.4141C15 14.0709 16.3431 15.4141 18 15.4141Z" fill="black"/>
<path fill-rule="evenodd" clip-rule="evenodd" d="M0 0.500966V9.57075C0 9.79312 0.0741222 10.0092 0.210648 10.1847L13.2106 26.899C13.611 27.4137 14.389 27.4137 14.7894 26.899L27.7894 10.1847C27.9259 10.0092 28 9.79312 28 9.57075V0.500966C28 0.0737896 27.4989 -0.156665 27.1746 0.121338L21.3922 5.07769C21.1462 5.28856 20.8142 5.36747 20.4982 5.29579C19.3317 5.03123 16.3572 4.41386 14 4.41386C11.6428 4.41386 8.66826 5.03123 7.50176 5.29579C7.18575 5.36747 6.85383 5.28856 6.6078 5.07769L0.825396 0.121338C0.501059 -0.156665 0 0.0737893 0 0.500966ZM10 15.4141C11.6569 15.4141 13 14.0709 13 12.4141C13 10.7572 11.6569 9.41406 10 9.41406C8.34315 9.41406 7 10.7572 7 12.4141C7 14.0709 8.34315 15.4141 10 15.4141ZM18 15.4141C19.6569 15.4141 21 14.0709 21 12.4141C21 10.7572 19.6569 9.41406 18 9.41406C16.3431 9.41406 15 10.7572 15 12.4141C15 14.0709 16.3431 15.4141 18 15.4141Z" fill="black"/>
<path fill-rule="evenodd" clip-rule="evenodd" d="M0 12.9141V24.9141C0 26.4956 0.917882 27.8628 2.25 28.5119V24.4141C2.25 24.276 2.36193 24.1641 2.5 24.1641C2.63807 24.1641 2.75 24.276 2.75 24.4141V28.7149C3.14327 28.8441 3.56347 28.9141 4 28.9141C4.43653 28.9141 4.85673 28.8441 5.25 28.7149V24.4141C5.25 24.276 5.36193 24.1641 5.5 24.1641C5.63807 24.1641 5.75 24.276 5.75 24.4141V28.5119C7.08212 27.8628 8 26.4956 8 24.9141C8 24.9141 8.5 22.9141 5 18.4141C1.5 13.9141 0 12.9141 0 12.9141Z" fill="black"/>
<path fill-rule="evenodd" clip-rule="evenodd" d="M0 12.9141V24.9141C0 26.4956 0.917882 27.8628 2.25 28.5119V24.4141C2.25 24.276 2.36193 24.1641 2.5 24.1641C2.63807 24.1641 2.75 24.276 2.75 24.4141V28.7149C3.14327 28.8441 3.56347 28.9141 4 28.9141C4.43653 28.9141 4.85673 28.8441 5.25 28.7149V24.4141C5.25 24.276 5.36193 24.1641 5.5 24.1641C5.63807 24.1641 5.75 24.276 5.75 24.4141V28.5119C7.08212 27.8628 8 26.4956 8 24.9141C8 24.9141 8.5 22.9141 5 18.4141C1.5 13.9141 0 12.9141 0 12.9141Z" fill="black"/>
<path fill-rule="evenodd" clip-rule="evenodd" d="M28.0247 12.9141V24.9141C28.0247 26.5049 27.096 27.8788 25.7513 28.5233V24.4141C25.7513 24.276 25.6393 24.1641 25.5013 24.1641C25.3632 24.1641 25.2513 24.276 25.2513 24.4141V28.7225C24.8647 28.8469 24.4526 28.9141 24.0247 28.9141C23.5795 28.9141 23.1513 28.8413 22.7513 28.7071V24.4141C22.7513 24.276 22.6393 24.1641 22.5013 24.1641C22.3632 24.1641 22.2513 24.276 22.2513 24.4141V28.5004C20.9318 27.8467 20.0247 26.4863 20.0247 24.9141C20.0247 24.9141 19.5247 22.9141 23.0247 18.4141C26.5247 13.9141 28.0247 12.9141 28.0247 12.9141Z" fill="black"/>
<path fill-rule="evenodd" clip-rule="evenodd" d="M28.0247 12.9141V24.9141C28.0247 26.5049 27.096 27.8788 25.7513 28.5233V24.4141C25.7513 24.276 25.6393 24.1641 25.5013 24.1641C25.3632 24.1641 25.2513 24.276 25.2513 24.4141V28.7225C24.8647 28.8469 24.4526 28.9141 24.0247 28.9141C23.5795 28.9141 23.1513 28.8413 22.7513 28.7071V24.4141C22.7513 24.276 22.6393 24.1641 22.5013 24.1641C22.3632 24.1641 22.2513 24.276 22.2513 24.4141V28.5004C20.9318 27.8467 20.0247 26.4863 20.0247 24.9141C20.0247 24.9141 19.5247 22.9141 23.0247 18.4141C26.5247 13.9141 28.0247 12.9141 28.0247 12.9141Z" fill="black"/>
<path d="M38.1097 27.7731C36.5737 27.7731 35.2057 27.4131 34.0057 26.6931C32.8297 25.9491 31.9057 24.9291 31.2337 23.6331C30.5857 22.3371 30.2617 20.8371 30.2617 19.1331C30.2617 17.4051 30.5977 15.8931 31.2697 14.5971C31.9657 13.3011 32.9257 12.2931 34.1497 11.5731C35.3977 10.8531 36.8377 10.4931 38.4697 10.4931C40.1017 10.4931 41.4937 10.8411 42.6457 11.5371C43.8217 12.2091 44.7217 13.1811 45.3457 14.4531C45.9697 15.7251 46.2817 17.2371 46.2817 18.9891C46.2817 19.1571 46.2697 19.3371 46.2457 19.5291C46.2457 19.6971 46.2457 19.8051 46.2457 19.8531H32.0977V17.4051H43.9777L42.8257 19.0611C42.8977 18.9411 42.9697 18.7611 43.0417 18.5211C43.1137 18.2571 43.1497 18.0411 43.1497 17.8731C43.1497 16.8891 42.9457 16.0371 42.5377 15.3171C42.1537 14.5971 41.6137 14.0331 40.9177 13.6251C40.2217 13.2171 39.4057 13.0131 38.4697 13.0131C37.3657 13.0131 36.4177 13.2531 35.6257 13.7331C34.8577 14.1891 34.2577 14.8611 33.8257 15.7491C33.4177 16.6131 33.2017 17.6811 33.1777 18.9531C33.1777 20.2491 33.3817 21.3531 33.7897 22.2651C34.1977 23.1771 34.7977 23.8731 35.5897 24.3531C36.3817 24.8331 37.3417 25.0731 38.4697 25.0731C39.5977 25.0731 40.5937 24.8331 41.4577 24.3531C42.3217 23.8491 43.0537 23.0931 43.6537 22.0851L45.9937 23.5611C45.1297 24.9531 44.0377 26.0091 42.7177 26.7291C41.4217 27.4251 39.8857 27.7731 38.1097 27.7731Z" fill="black"/>
<path d="M47.1817 10.8531H50.4217L54.5617 21.6171L59.0617 9.59312L63.8857 21.6891L68.0617 10.8531H71.3017L64.1017 28.6731L59.0977 16.6131L54.3817 28.6731L47.1817 10.8531Z" fill="black"/>
<path d="M77.8425 10.3851L75.9705 27.4131H72.9105L75.9705 0.953125L86.0505 19.2051L96.1305 0.953125L99.1905 27.4131H96.1305L94.2585 10.3851L86.0505 25.0731L77.8425 10.3851Z" fill="black"/>
<path d="M101.875 19.1331C101.875 17.4531 102.247 15.9651 102.991 14.6691C103.759 13.3731 104.791 12.3531 106.087 11.6091C107.383 10.8651 108.835 10.4931 110.443 10.4931C112.075 10.4931 113.527 10.8651 114.799 11.6091C116.095 12.3531 117.115 13.3731 117.859 14.6691C118.627 15.9651 119.011 17.4531 119.011 19.1331C119.011 20.7891 118.627 22.2771 117.859 23.5971C117.115 24.8931 116.095 25.9131 114.799 26.6571C113.527 27.4011 112.075 27.7731 110.443 27.7731C108.835 27.7731 107.383 27.4011 106.087 26.6571C104.791 25.9131 103.759 24.8931 102.991 23.5971C102.247 22.2771 101.875 20.7891 101.875 19.1331ZM104.791 19.1331C104.791 20.2851 105.031 21.3051 105.511 22.1931C106.015 23.0811 106.687 23.7891 107.527 24.3171C108.391 24.8211 109.363 25.0731 110.443 25.0731C111.523 25.0731 112.483 24.8211 113.323 24.3171C114.187 23.7891 114.859 23.0811 115.339 22.1931C115.843 21.3051 116.095 20.2851 116.095 19.1331C116.095 17.9811 115.843 16.9611 115.339 16.0731C114.859 15.1611 114.187 14.4531 113.323 13.9491C112.483 13.4451 111.523 13.1931 110.443 13.1931C109.363 13.1931 108.391 13.4451 107.527 13.9491C106.687 14.4531 106.015 15.1611 105.511 16.0731C105.031 16.9611 104.791 17.9811 104.791 19.1331Z" fill="black"/>
<path d="M122.499 4.01312C122.499 3.46112 122.691 3.00512 123.075 2.64512C123.459 2.26112 123.915 2.06912 124.443 2.06912C124.995 2.06912 125.451 2.26112 125.811 2.64512C126.195 3.00512 126.387 3.46112 126.387 4.01312C126.387 4.54112 126.195 4.99712 125.811 5.38112C125.451 5.76512 124.995 5.95712 124.443 5.95712C123.915 5.95712 123.459 5.76512 123.075 5.38112C122.691 4.99712 122.499 4.54112 122.499 4.01312ZM117.5 32.4141C118.071 32.4141 120 32.4141 120.375 32.4141C121 32.4141 117.582 32.4141 121.5 32.4141C121.908 32.4141 122.707 31.6323 123 31.4141C123.373 31.1359 122.847 31.5651 122.967 31.0851C123.087 30.6051 123.147 29.9811 123.147 29.2131V10.8531H126.027V29.5731C126.027 30.7731 125.835 31.8051 125.451 32.6691C125.091 33.5331 124.551 34.1931 123.831 34.6491C123.111 35.1051 122.247 35.3331 121.239 35.3331C120.759 35.3331 112 35.4141 112 35.4141H29.3333C29.1492 35.4141 29 35.2648 29 35.0807V35.0807C29 33.608 30.1939 32.4141 31.6667 32.4141H117.5Z" fill="black"/>
<path d="M131.967 4.01312C131.967 3.46112 132.159 2.99312 132.543 2.60913C132.951 2.22512 133.419 2.03312 133.947 2.03312C134.499 2.03312 134.967 2.22512 135.351 2.60913C135.735 2.99312 135.927 3.46112 135.927 4.01312C135.927 4.54112 135.735 5.00913 135.351 5.41713C134.967 5.80113 134.499 5.99312 133.947 5.99312C133.419 5.99312 132.951 5.80113 132.543 5.41713C132.159 5.00913 131.967 4.54112 131.967 4.01312ZM132.507 10.8531H135.387V27.4131H132.507V10.8531Z" fill="black"/>
</svg>
